<svg width="170" height="76" viewBox="0 0 170 76" fill="none" xmlns="http://www.w3.org/2000/svg">
<path d="M19.8613 61.872C17.0879 61.872 14.5066 61.4667 12.1173 60.656C9.77058 59.888 7.72258 58.8 5.97325 57.392C4.22392 56.0267 2.83725 54.384 1.81325 52.464C0.831917 50.5867 0.34125 48.5387 0.34125 46.32C0.34125 45.5093 0.40525 44.464 0.53325 43.184C0.66125 41.904 0.831917 40.432 1.04525 38.768C1.30125 37.104 1.57858 35.3333 1.87725 33.456L10.3253 34.608C9.89858 37.296 9.55725 39.6853 9.30125 41.776C9.04525 43.8667 8.91725 45.3387 8.91725 46.192C8.91725 47.8133 9.36525 49.2427 10.2613 50.48C11.1573 51.7173 12.4159 52.6773 14.0373 53.36C15.7013 54.0853 17.6426 54.448 19.8613 54.448H37.9733C40.7466 54.448 42.8159 53.744 44.1813 52.336C45.5466 50.928 46.2293 48.88 46.2293 46.192V43.76H54.7413V46.192C54.7413 49.264 54.0586 51.9733 52.6933 54.32C51.3279 56.6667 49.3866 58.5013 46.8693 59.824C44.3946 61.1893 41.4293 61.872 37.9733 61.872H19.8613ZM43.4133 46C41.4506 46 39.5519 45.7867 37.7173 45.36C35.9253 44.9333 34.2186 44.1653 32.5973 43.056L37.4613 36.912C38.1439 37.3813 38.7413 37.744 39.2533 38C39.8079 38.2133 40.4053 38.3627 41.0453 38.448C41.7279 38.5333 42.5173 38.576 43.4133 38.576H57.5573V46H43.4133ZM57.5573 46V38.576C58.0266 38.576 58.3466 38.9173 58.5173 39.6C58.7306 40.24 58.8373 41.136 58.8373 42.288C58.8373 43.3973 58.7306 44.2933 58.5173 44.976C58.3466 45.6587 58.0266 46 57.5573 46ZM18.7733 75.312V68.016H27.3493V75.312H18.7733ZM27.5413 75.312V68.016H36.1173V75.312H27.5413ZM57.5312 46V38.576H69.2433L64.2513 42.736V13.872H72.8273V46H57.5312ZM57.5312 46C57.0192 46 56.6779 45.6587 56.5072 44.976C56.3366 44.2933 56.2512 43.3973 56.2512 42.288C56.2512 41.136 56.3366 40.24 56.5072 39.6C56.6779 38.9173 57.0192 38.576 57.5312 38.576V46ZM64.2513 7.984V0.688H72.8273V7.984H64.2513ZM110.365 46V38.576H117.085V46H110.365ZM93.0848 61.872C91.5061 61.872 89.8421 61.744 88.0928 61.488C86.3861 61.2747 84.5514 60.976 82.5888 60.592L83.8688 53.744C86.0021 54 87.8154 54.192 89.3088 54.32C90.8021 54.448 92.0608 54.512 93.0848 54.512C96.1568 54.512 98.3754 53.9573 99.7408 52.848C101.106 51.7387 101.789 50.0747 101.789 47.856V19.76L103.901 21.296H95.9008C94.1514 21.296 92.7434 21.5093 91.6768 21.936C90.6101 22.32 89.8208 23.152 89.3088 24.432C88.8394 25.6693 88.6048 27.568 88.6048 30.128C88.6048 32.56 88.8181 34.3947 89.2448 35.632C89.7141 36.8267 90.4821 37.616 91.5488 38C92.6154 38.384 94.0661 38.576 95.9008 38.576H101.789V46H95.9008C92.2741 46 89.2874 45.424 86.9408 44.272C84.5941 43.12 82.8448 41.3707 81.6927 39.024C80.5834 36.6773 80.0288 33.712 80.0288 30.128C80.0288 26.544 80.5834 23.5573 81.6927 21.168C82.8448 18.736 84.5941 16.9227 86.9408 15.728C89.2874 14.4907 92.2741 13.872 95.9008 13.872H110.365V47.856C110.365 50.7573 109.639 53.2533 108.189 55.344C106.781 57.4773 104.775 59.0987 102.173 60.208C99.6128 61.3173 96.5834 61.872 93.0848 61.872ZM117.085 46V38.576C117.597 38.576 117.938 38.9173 118.109 39.6C118.279 40.24 118.365 41.136 118.365 42.288C118.365 43.3973 118.279 44.2933 118.109 44.976C117.938 45.6587 117.597 46 117.085 46ZM117.094 46V38.576H132.262L127.27 42.736V13.872H135.782V46H117.094ZM117.094 46C116.582 46 116.24 45.6587 116.07 44.976C115.899 44.2933 115.814 43.3973 115.814 42.288C115.814 41.136 115.899 40.24 116.07 39.6C116.24 38.9173 116.582 38.576 117.094 38.576V46ZM119.654 59.312V52.016H128.23V59.312H119.654ZM128.422 59.312V52.016H136.998V59.312H128.422Z" fill="#494953"/>
<path d="M143.029 46V38.576H166.261L160.437 43.632V32.88C160.437 29.8507 160.117 27.504 159.477 25.84C158.879 24.176 157.855 23.0027 156.405 22.32C154.997 21.6373 153.055 21.296 150.581 21.296H145.397V13.872H150.581C154.506 13.872 157.834 14.512 160.565 15.792C163.338 17.072 165.429 19.12 166.837 21.936C168.287 24.7093 169.013 28.3573 169.013 32.88V46H143.029Z" fill="#F73F52"/>
</svg>
